<svg width="32" height="32" viewBox="0 0 32 32" fill="none" xmlns="http://www.w3.org/2000/svg">
  <!-- Black background -->
  <rect width="32" height="32" rx="6" fill="#000000"/>
  
  <!-- Neural network / Dendrite structure -->
  <g transform="translate(16, 16)">
    <!-- Center node -->
    <circle cx="0" cy="0" r="2" fill="#FFFFFF"/>
    
    <!-- Top branch -->
    <path d="M 0 -2 L 0 -8" stroke="#FFFFFF" stroke-width="1.5" stroke-linecap="round"/>
    <circle cx="0" cy="-8" r="1.5" fill="#FFFFFF"/>
    <path d="M 0 -8 L -3 -11" stroke="#FFFFFF" stroke-width="1" stroke-linecap="round"/>
    <circle cx="-3" cy="-11" r="1" fill="#FFFFFF"/>
    <path d="M 0 -8 L 3 -11" stroke="#FFFFFF" stroke-width="1" stroke-linecap="round"/>
    <circle cx="3" cy="-11" r="1" fill="#FFFFFF"/>
    
    <!-- Bottom branch -->
    <path d="M 0 2 L 0 8" stroke="#FFFFFF" stroke-width="1.5" stroke-linecap="round"/>
    <circle cx="0" cy="8" r="1.5" fill="#FFFFFF"/>
    <path d="M 0 8 L -3 11" stroke="#FFFFFF" stroke-width="1" stroke-linecap="round"/>
    <circle cx="-3" cy="11" r="1" fill="#FFFFFF"/>
    <path d="M 0 8 L 3 11" stroke="#FFFFFF" stroke-width="1" stroke-linecap="round"/>
    <circle cx="3" cy="11" r="1" fill="#FFFFFF"/>
    
    <!-- Left branch -->
    <path d="M -2 0 L -8 0" stroke="#FFFFFF" stroke-width="1.5" stroke-linecap="round"/>
    <circle cx="-8" cy="0" r="1.5" fill="#FFFFFF"/>
    <path d="M -8 0 L -11 -3" stroke="#FFFFFF" stroke-width="1" stroke-linecap="round"/>
    <circle cx="-11" cy="-3" r="1" fill="#FFFFFF"/>
    <path d="M -8 0 L -11 3" stroke="#FFFFFF" stroke-width="1" stroke-linecap="round"/>
    <circle cx="-11" cy="3" r="1" fill="#FFFFFF"/>
    
    <!-- Right branch -->
    <path d="M 2 0 L 8 0" stroke="#FFFFFF" stroke-width="1.5" stroke-linecap="round"/>
    <circle cx="8" cy="0" r="1.5" fill="#FFFFFF"/>
    <path d="M 8 0 L 11 -3" stroke="#FFFFFF" stroke-width="1" stroke-linecap="round"/>
    <circle cx="11" cy="-3" r="1" fill="#FFFFFF"/>
    <path d="M 8 0 L 11 3" stroke="#FFFFFF" stroke-width="1" stroke-linecap="round"/>
    <circle cx="11" cy="3" r="1" fill="#FFFFFF"/>
    
    <!-- Diagonal connections for complexity -->
    <path d="M 0 0 L 5 5" stroke="#FFFFFF" stroke-width="1" stroke-linecap="round" opacity="0.6"/>
    <path d="M 0 0 L -5 5" stroke="#FFFFFF" stroke-width="1" stroke-linecap="round" opacity="0.6"/>
    <path d="M 0 0 L 5 -5" stroke="#FFFFFF" stroke-width="1" stroke-linecap="round" opacity="0.6"/>
    <path d="M 0 0 L -5 -5" stroke="#FFFFFF" stroke-width="1" stroke-linecap="round" opacity="0.6"/>
  </g>
</svg>
