<svg width="32" height="32" viewBox="0 0 32 32" fill="none" xmlns="http://www.w3.org/2000/svg">
  <rect width="32" height="32" rx="6" fill="url(#bgGradient)"/>
  
  <!-- Gaming controller icon -->
  <g transform="translate(6, 8)">
    <!-- Controller body -->
    <path d="M3 4 C3 2, 4 1, 6 1 L8 1 L8 1 L10 1 C12 1, 13 2, 13 4 L13 8 C13 10, 12 11, 10 11 L6 11 C4 11, 3 10, 3 8 Z" 
          fill="white" 
          fill-opacity="0.9"
          stroke="white" 
          stroke-width="1" 
          stroke-linecap="round" 
          stroke-linejoin="round"/>
    
    <!-- D-pad -->
    <line x1="5.5" y1="5" x2="5.5" y2="7.5" stroke="#3b82f6" stroke-width="1" stroke-linecap="round"/>
    <line x1="4.25" y1="6.25" x2="6.75" y2="6.25" stroke="#3b82f6" stroke-width="1" stroke-linecap="round"/>
    
    <!-- Buttons -->
    <circle cx="10.5" cy="5" r="0.8" fill="#8b5cf6"/>
    <circle cx="10.5" cy="7.5" r="0.8" fill="#8b5cf6"/>
  </g>
  
  <defs>
    <linearGradient id="bgGradient" x1="0%" y1="0%" x2="100%" y2="100%">
      <stop offset="0%" style="stop-color:#3b82f6;stop-opacity:1" />
      <stop offset="100%" style="stop-color:#8b5cf6;stop-opacity:1" />
    </linearGradient>
  </defs>
</svg>
